<?xml version="1.0" encoding="utf-8"?>
<!-- Generator: Adobe Illustrator 19.0.0, SVG Export Plug-In . SVG Version: 6.00 Build 0)  -->
<svg version="1.1" id="Layer_1" xmlns="http://www.w3.org/2000/svg" xmlns:xlink="http://www.w3.org/1999/xlink" x="0px" y="0px"
	 viewBox="0 0 20 20" style="enable-background:new 0 0 20 20;" xml:space="preserve">
<style type="text/css">
	.st0{fill:#FFFFFF;stroke:#00CB9D;stroke-miterlimit:10;}
	.st1{fill:#00CB9D;}
	.st2{fill:#FFFFFF;}
</style>
<path id="XMLID_57_" class="st0" d="M10,19.1c-5,0-9.1-4.1-9.1-9.1C0.9,5,5,0.9,10,0.9S19.1,5,19.1,10C19.1,15,15,19.1,10,19.1"/>
<g id="XMLID_54_">
	<path id="XMLID_56_" class="st1" d="M15.6,14.1l-2.5-2.3c0.8-1.2,1.1-2.7,0.7-4.1C13.2,5,10.4,3.4,7.7,4.1s-4.3,3.5-3.6,6.2
		s3.5,4.3,6.2,3.6c0.6-0.2,1.1-0.4,1.6-0.7l2.5,2.3c0.2,0.2,0.5,0.1,0.6,0l0.6-0.7C15.8,14.6,15.8,14.3,15.6,14.1z"/>
	<circle id="XMLID_55_" class="st2" cx="9" cy="8.9" r="2.6"/>
</g>
</svg>
