<?xml version="1.0" encoding="utf-8"?>
<!-- Generator: Adobe Illustrator 19.0.0, SVG Export Plug-In . SVG Version: 6.00 Build 0)  -->
<svg version="1.1" id="Capa_1" xmlns="http://www.w3.org/2000/svg" xmlns:xlink="http://www.w3.org/1999/xlink" x="0px" y="0px"
	 viewBox="-223 25 512 512" style="enable-background:new -223 25 512 512;" xml:space="preserve">
<style type="text/css">
	.st0{fill:#27C48B;}
	.st1{fill:none;stroke:#27C48B;stroke-width:30;stroke-miterlimit:10;}
</style>
<g>
	<path class="st0" d="M162,380.6L106.3,325c13.4-19.4,20.1-40.9,20.1-64.7c0-15.5-3-30.3-9-44.4c-6-14.1-14.1-26.3-24.3-36.5
		S70.7,161,56.6,155c-14.1-6-28.9-9-44.4-9c-15.5,0-30.3,3-44.4,9c-14.1,6-26.3,14.1-36.5,24.3C-78.9,189.6-87,201.7-93,215.9
		c-6,14.1-9,28.9-9,44.4c0,15.5,3,30.3,9,44.4c6,14.1,14.1,26.3,24.3,36.5c10.2,10.2,22.4,18.3,36.5,24.3c14.1,6,28.9,9,44.4,9
		c23.8,0,45.4-6.7,64.7-20.1l55.7,55.5c3.9,4.1,8.8,6.2,14.6,6.2c5.6,0,10.5-2.1,14.6-6.2c4.1-4.1,6.2-9,6.2-14.6
		C168,389.5,166,384.6,162,380.6z M63.6,311.6c-14.2,14.2-31.3,21.3-51.4,21.3c-20,0-37.1-7.1-51.4-21.3
		c-14.2-14.2-21.3-31.3-21.3-51.4c0-20,7.1-37.1,21.3-51.4c14.2-14.2,31.3-21.3,51.4-21.3c20,0,37.1,7.1,51.4,21.3
		c14.2,14.2,21.3,31.3,21.3,51.4C84.9,280.2,77.8,297.4,63.6,311.6z"/>
</g>
<ellipse class="st1" cx="32.9" cy="280.5" rx="230.2" ry="231.1"/>
</svg>
