<?xml version="1.0" encoding="utf-8"?>
<!-- Generator: Adobe Illustrator 19.0.0, SVG Export Plug-In . SVG Version: 6.00 Build 0)  -->
<svg version="1.1" id="Capa_1" xmlns="http://www.w3.org/2000/svg" xmlns:xlink="http://www.w3.org/1999/xlink" x="0px" y="0px"
	 viewBox="-223 25 512 512" style="enable-background:new -223 25 512 512;" xml:space="preserve">
<style type="text/css">
	.st0{fill:#27C48B;}
</style>
<path class="st0" d="M160.5,149C52.5,149,34.2,108,34,107.6c-0.8-2-2.8-3.3-5-3.4c0,0,0,0-0.1,0c-2.1,0-4.1,1.3-5,3.3
	C23.8,107.9,5.1,149-102.5,149c-3,0-5.4,2.4-5.4,5.4v183.8c0,75.3,129.3,132.7,134.7,135.2c0.7,0.3,1.4,0.4,2.2,0.4
	c0.7,0,1.5-0.1,2.2-0.4c5.5-2.4,134.7-59.9,134.7-135.2V154.4C165.9,151.4,163.5,149,160.5,149z M136.2,327.5
	c0,58.9-101.2,103.9-105.5,105.8c-0.5,0.3-1.1,0.4-1.7,0.4c-0.6,0-1.1-0.1-1.7-0.4C23,431.4-78.2,386.4-78.2,327.5V183.6
	c0-2.3,1.9-4.2,4.2-4.2c84.3,0,98.9-32.1,99.1-32.5c0.7-1.6,2.2-2.6,3.9-2.6c0,0,0.1,0,0.1,0c1.7,0,3.3,1.1,3.9,2.7
	c0.1,0.3,14.5,32.4,99.1,32.4c2.3,0,4.2,1.9,4.2,4.2L136.2,327.5L136.2,327.5z"/>
</svg>
