<?xml version="1.0" encoding="utf-8"?>
<!-- Generator: Adobe Illustrator 19.0.0, SVG Export Plug-In . SVG Version: 6.00 Build 0)  -->
<svg version="1.1" id="Layer_1" xmlns="http://www.w3.org/2000/svg" xmlns:xlink="http://www.w3.org/1999/xlink" x="0px" y="0px"
	 viewBox="0 0 20 20" style="enable-background:new 0 0 20 20;" xml:space="preserve">
<style type="text/css">
	.st0{fill:#00CB9D;}
</style>
<path id="XMLID_54_" class="st0" d="M10.3,20l-0.8-0.4c-0.8-0.4-8-3.7-8-8.6V1.6c0-0.9,0.9-1.5,1.7-1.1l7,2.9l7-2.9
	C18.1,0.2,19,0.8,19,1.6v9.4c0,4.6-5.2,7.2-7.4,8.3c-0.2,0.1-0.4,0.2-0.5,0.3L10.3,20z M5,5.1v6c0,1.7,2.9,3.8,5.2,5
	c1.7-0.9,5.2-2.7,5.2-5v-6l-5.2,2.1L5,5.1z"/>
</svg>
