<?xml version="1.0" encoding="utf-8"?>
<!-- Generator: Adobe Illustrator 19.0.0, SVG Export Plug-In . SVG Version: 6.00 Build 0)  -->
<svg version="1.1" id="Layer_1" xmlns="http://www.w3.org/2000/svg" xmlns:xlink="http://www.w3.org/1999/xlink" x="0px" y="0px"
	 viewBox="0 0 639.1 138.7" style="enable-background:new 0 0 639.1 138.7;" xml:space="preserve">
<style type="text/css">
	.st0{fill:#4C4C4C;}
	.st1{clip-path:url(#SVGID_2_);}
	.st2{clip-path:url(#SVGID_4_);fill:url(#SVGID_5_);}
	.st3{fill:#27C48B;}
</style>
<g>
	<g>
		<path class="st0" d="M61.9,108.2c-6.3,0-12.4-1.1-18.1-3.2c-5.8-2.1-11.1-5.4-16-9.9l8.7-10.3c4,3.4,8,6.1,12.1,7.9
			c4.1,1.8,8.7,2.7,13.7,2.7c4.4,0,8-1,10.6-2.9c2.6-1.9,3.9-4.4,3.9-7.4v-0.2c0-1.5-0.3-2.8-0.8-3.9c-0.5-1.1-1.4-2.2-2.8-3.2
			c-1.4-1-3.2-1.9-5.6-2.8c-2.4-0.9-5.5-1.7-9.3-2.6c-4.4-1-8.2-2.2-11.6-3.5c-3.4-1.3-6.2-2.8-8.5-4.7c-2.3-1.8-4.1-4.1-5.3-6.7
			c-1.2-2.7-1.8-5.8-1.8-9.6v-0.2c0-3.5,0.7-6.7,2.1-9.7c1.4-2.9,3.3-5.4,5.8-7.5s5.4-3.7,8.8-4.9c3.4-1.2,7.2-1.8,11.2-1.8
			c6,0,11.4,0.9,16.2,2.6s9.3,4.3,13.5,7.7L81,45.1c-3.7-2.7-7.4-4.8-11.1-6.3c-3.7-1.4-7.4-2.2-11.1-2.2c-4.2,0-7.5,0.9-9.8,2.8
			s-3.5,4.2-3.5,6.9v0.2c0,1.6,0.3,2.9,0.8,4.2c0.5,1.2,1.6,2.3,3,3.3c1.5,1,3.5,1.9,6,2.7c2.5,0.9,5.7,1.8,9.7,2.7
			c4.3,1.1,8.1,2.3,11.3,3.6c3.3,1.3,6,2.9,8.2,4.9c2.2,1.9,3.9,4.1,5,6.7c1.1,2.5,1.6,5.5,1.6,8.8v0.2c0,3.8-0.7,7.3-2.2,10.3
			c-1.4,3-3.5,5.6-6,7.7c-2.6,2.1-5.7,3.7-9.2,4.8C70.1,107.6,66.2,108.2,61.9,108.2z"/>
	</g>
	<g>
		<path class="st0" d="M103.4,25.1h60.7V38h-46.3v21.3h41.1v12.9h-41.1v22h46.9V107h-61.3V25.1z"/>
	</g>
	<g>
		<path class="st0" d="M217.5,108.4c-6,0-11.5-1.1-16.6-3.3c-5.1-2.2-9.5-5.2-13.2-9c-3.7-3.8-6.6-8.2-8.7-13.4
			c-2.1-5.1-3.2-10.6-3.2-16.5v-0.2c0-5.8,1-11.3,3.1-16.4c2.1-5.1,5-9.6,8.7-13.5c3.7-3.9,8.2-6.9,13.3-9.1
			c5.1-2.2,10.8-3.3,17.1-3.3c3.7,0,7.2,0.3,10.2,0.9c3.1,0.6,5.9,1.5,8.5,2.6c2.6,1.1,5,2.5,7.1,4c2.2,1.5,4.3,3.2,6.2,5.1
			L240.9,47c-3.3-3-6.7-5.5-10.4-7.4c-3.7-1.9-7.8-2.8-12.5-2.8c-3.9,0-7.5,0.8-10.8,2.3c-3.3,1.5-6.2,3.6-8.5,6.2
			c-2.4,2.6-4.3,5.7-5.6,9.2c-1.4,3.5-2,7.3-2,11.3V66c0,4,0.7,7.8,2,11.3c1.3,3.6,3.2,6.6,5.6,9.3c2.4,2.6,5.3,4.7,8.6,6.2
			c3.3,1.5,6.9,2.3,10.8,2.3c5,0,9.3-0.9,12.9-2.8c3.6-1.9,7.1-4.4,10.6-7.7l9.2,9.4c-2.1,2.3-4.3,4.3-6.6,6
			c-2.3,1.8-4.8,3.3-7.4,4.6c-2.7,1.3-5.6,2.3-8.7,2.9C224.8,108.1,221.3,108.4,217.5,108.4z"/>
	</g>
	<g>
		<path class="st0" d="M364.1,25.1h36.5c5.1,0,9.7,0.7,13.7,2.2c4,1.4,7.3,3.5,9.9,6c2.2,2.3,3.9,4.9,5,7.8c1.2,3,1.8,6.2,1.8,9.8
			v0.2c0,6.7-1.8,12.1-5.4,16.2s-8.3,7-14,8.6l22.1,31h-17.1l-20.1-28.5h-18V107h-14.4V25.1z M399.6,65.7c5.1,0,9.2-1.2,12.3-3.7
			c3-2.5,4.6-5.8,4.6-10v-0.2c0-4.4-1.5-7.8-4.4-10.1c-3-2.3-7.1-3.5-12.5-3.5h-20.9v27.5H399.6z"/>
	</g>
	<g>
		<path class="st0" d="M444.8,25.1h14.4V107h-14.4V25.1z"/>
	</g>
	<g>
		<path class="st0" d="M474.1,25.1h61v13.1h-46.6v22.3h41.3v13.1h-41.3V107h-14.4V25.1z"/>
	</g>
	<g>
		<path class="st0" d="M572.6,74.7l-32.5-49.6h17.1L580,61.3l23.2-36.2h16.5l-32.5,49.3V107h-14.5V74.7z"/>
	</g>
	<g>
		<g>
			<defs>
				<rect id="SVGID_1_" x="258.4" y="124.4" width="97.4" height="14.3"/>
			</defs>
			<clipPath id="SVGID_2_">
				<use xlink:href="#SVGID_1_"  style="overflow:visible;"/>
			</clipPath>
			<g class="st1">
				<defs>
					<rect id="SVGID_3_" x="258.4" y="124.4" width="97.4" height="14.3"/>
				</defs>
				<clipPath id="SVGID_4_">
					<use xlink:href="#SVGID_3_"  style="overflow:visible;"/>
				</clipPath>
				
					<radialGradient id="SVGID_5_" cx="1539.3613" cy="-574.9046" r="0.9999" gradientTransform="matrix(46.8915 0 0 7.4676 -71875.8828 4424.6899)" gradientUnits="userSpaceOnUse">
					<stop  offset="0" style="stop-color:#D4D4D4"/>
					<stop  offset="0.4677" style="stop-color:#F2F2F2"/>
					<stop  offset="1" style="stop-color:#FFFFFF"/>
				</radialGradient>
				<rect x="258.4" y="124.4" class="st2" width="97.4" height="14.3"/>
			</g>
		</g>
	</g>
	<g>
		<path class="st3" d="M305.7,110.9c-6.5,0-12.4-0.8-17.7-2.3c-5.3-1.5-9.8-3.8-13.5-6.8c-3.7-3-6.6-6.8-8.6-11.3
			c-2-4.5-3-9.7-3-15.6V30l17.7-2.3v42.6c0,7.6,2.2,13.4,6.8,17.4c4.5,3.9,10.7,5.9,18.7,5.9c7.9,0,14-1.9,18.5-5.7
			c4.5-3.8,6.8-9.5,6.8-17V27.7l17.7,2.4v44c0,6.1-1,11.4-3.1,16c-2.1,4.6-5,8.4-8.7,11.5c-3.7,3.1-8.3,5.4-13.6,6.9
			C318.3,110.1,312.3,110.9,305.7,110.9z"/>
	</g>
</g>
</svg>
