<?xml version="1.0" encoding="utf-8"?>
<!-- Generator: Adobe Illustrator 19.0.0, SVG Export Plug-In . SVG Version: 6.00 Build 0)  -->
<svg version="1.1" id="Layer_1" xmlns="http://www.w3.org/2000/svg" xmlns:xlink="http://www.w3.org/1999/xlink" x="0px" y="0px"
	 viewBox="0 0 20 20" style="enable-background:new 0 0 20 20;" xml:space="preserve">
<style type="text/css">
	.st0{fill:#FFFFFF;stroke:#00CB9D;stroke-miterlimit:10;}
	.st1{fill:#00CB9D;}
</style>
<path id="XMLID_57_" class="st0" d="M10,19.1c-5,0-9.1-4.1-9.1-9.1C0.9,5,5,0.9,10,0.9S19.1,5,19.1,10C19.1,15,15,19.1,10,19.1"/>
<path id="XMLID_54_" class="st1" d="M10.3,15.5l-0.4-0.2c-0.4-0.2-4.4-2-4.4-4.7V5.5c0-0.5,0.5-0.8,0.9-0.6l3.8,1.6L14,4.9
	C14.5,4.7,15,5.1,15,5.5v5.1c0,2.5-2.8,3.9-4,4.5c-0.1,0.1-0.2,0.1-0.3,0.1L10.3,15.5z M7.4,7.4v3.3c0,0.9,1.6,2.1,2.8,2.7
	c0.9-0.5,2.8-1.5,2.8-2.7V7.4l-2.8,1.2L7.4,7.4z"/>
</svg>
